<?xml version="1.0" encoding="UTF-8"?>
<!DOCTYPE svg PUBLIC "-//W3C//DTD SVG 1.1//EN" "http://www.w3.org/Graphics/SVG/1.1/DTD/svg11.dtd">
<!-- Creator: CorelDRAW -->
<svg xmlns="http://www.w3.org/2000/svg" xml:space="preserve" width="8.66666in" height="8.66666in" style="shape-rendering:geometricPrecision; text-rendering:geometricPrecision; image-rendering:optimizeQuality; fill-rule:evenodd; clip-rule:evenodd"
viewBox="0 0 8.66666 8.66666"
 xmlns:xlink="http://www.w3.org/1999/xlink">
 <defs>
  <style type="text/css">
   <![CDATA[
    .fil0 {fill:black}
    .fil1 {fill:#FFFFFE}
   ]]>
  </style>
 </defs>
 <g id="Layer_x0020_1">
  <metadata id="CorelCorpID_0Corel-Layer"/>
  <circle class="fil0" cx="4.33333" cy="4.33333" r="4.33333"/>
  <path class="fil1" d="M6.86989 4.89415l-3.09655 -3.09655c-0.0177559,-0.018252 -0.0438937,-0.0277441 -0.0708858,-0.023126l1.9685e-005 0.000106299 -1.58613 0.271315c-0.0344646,0.00390945 -0.0636575,0.0301063 -0.0697992,0.0660118l0.000102362 5.11811e-005 -0.27135 1.58635c-0.0058189,0.0258701 0.00133465,0.054063 0.0214724,0.0741929l3.09709 3.09709 0.000287402 0.000295276c0.0312402,0.0312402 0.0818937,0.0312402 0.11313,-3.93701e-006l1.86232 -1.86232 0.000295276 -0.000287402c0.0312402,-0.0312402 0.0312402,-0.0818937 -3.93701e-006,-0.11313zm-4.20651 -2.55937c0.0903189,0 0.180642,0.0344606 0.249567,0.103382 0.0689173,0.0689173 0.103382,0.159248 0.103382,0.249563 0,0.0903189 -0.0344646,0.180646 -0.103386,0.249571 -0.0689173,0.0689173 -0.159248,0.103378 -0.249563,0.103378 -0.090315,0 -0.180642,-0.0344606 -0.249563,-0.103382 -0.0689213,-0.0689213 -0.103382,-0.159248 -0.103382,-0.249567 0,-0.090315 0.0344606,-0.180646 0.103386,-0.249567 0.0689173,-0.0689173 0.159244,-0.103378 0.249559,-0.103378zm0.802319 1.13576c0.0312362,-0.0312362 0.0818898,-0.0312362 0.113126,0l2.10322 2.10323c0.0312362,0.0312362 0.0312362,0.0818898 0,0.113126 -0.0312362,0.0312362 -0.0818898,0.0312362 -0.113126,0l-2.10322 -2.10323c-0.0312362,-0.0312362 -0.0312362,-0.0818898 0,-0.113126zm0.525803 -0.525807c0.0312362,-0.0312362 0.0818898,-0.0312362 0.113126,0l2.10323 2.10323c0.0312362,0.0312362 0.0312362,0.0818898 0,0.113126 -0.0312362,0.0312362 -0.0818898,0.0312362 -0.113126,0l-2.10323 -2.10323c-0.0312362,-0.0312362 -0.0312362,-0.0818898 0,-0.113126zm-1.098 1.03615c0.0312362,-0.0312362 0.0818898,-0.0312362 0.113126,0l2.10323 2.10322c0.0312362,0.0312362 0.0312362,0.0818898 0,0.113126 -0.0312362,0.0312362 -0.0818898,0.0312362 -0.113126,0l-2.10323 -2.10322c-0.0312362,-0.0312362 -0.0312362,-0.0818898 0,-0.113126z"/>
  <path class="fil1" d="M2.85633 2.68772c0,-0.0493819 -0.0188425,-0.0987717 -0.0565118,-0.136441 -0.0376693,-0.0376693 -0.0870512,-0.0565039 -0.136437,-0.0565039 -0.0493819,0 -0.0987677,0.0188386 -0.136437,0.0565079 -0.0376693,0.0376693 -0.0565079,0.0870551 -0.0565079,0.136437 0,0.0493858 0.0188386,0.0987717 0.0565118,0.136445 0.0376654,0.0376654 0.0870512,0.0565039 0.136433,0.0565039 0.0493819,0 0.0987717,-0.0188386 0.136441,-0.0565079 0.0376693,-0.0376693 0.0565079,-0.0870551 0.0565079,-0.136441z"/>
 </g>
</svg>
