<?xml version="1.0" standalone="no"?>
<!DOCTYPE svg PUBLIC "-//W3C//DTD SVG 20010904//EN"
 "http://www.w3.org/TR/2001/REC-SVG-20010904/DTD/svg10.dtd">
<svg version="1.0" xmlns="http://www.w3.org/2000/svg"
 width="1137.000000pt" height="1141.000000pt" viewBox="0 0 1137.000000 1141.000000"
 preserveAspectRatio="xMidYMid meet">

<g transform="translate(0.000000,1141.000000) scale(0.100000,-0.100000)"
fill="#000000" stroke="none">
<path d="M694 11200 c-212 -31 -385 -194 -424 -399 -7 -36 -10 -1093 -10
-3137 l0 -3084 5485 0 5485 0 -2 3113 -3 3112 -21 56 c-59 160 -173 272 -334
326 -53 17 -226 18 -5090 19 -2769 1 -5058 -2 -5086 -6z m10064 -3327 l-3
-2818 -5017 -3 -5018 -2 0 2820 0 2820 5020 0 5020 0 -2 -2817z"/>
<path d="M5075 8696 c-35 -15 -55 -52 -55 -102 0 -53 53 -104 109 -104 53 0
99 39 108 92 15 96 -69 155 -162 114z m40 -76 c0 -19 -6 -26 -24 -28 -29 -4
-43 15 -30 41 15 28 54 19 54 -13z"/>
<path d="M6104 8700 c-12 -4 -31 -21 -43 -36 -52 -66 2 -174 87 -174 87 0 135
78 102 164 -17 45 -91 68 -146 46z m31 -80 c0 -18 -6 -26 -23 -28 -24 -4 -38
18 -28 44 3 9 15 14 28 12 17 -2 23 -10 23 -28z"/>
<path d="M5535 8597 c-154 -51 -215 -121 -185 -212 25 -75 195 -225 255 -225
11 0 15 -12 15 -48 0 -79 -46 -117 -92 -75 -29 26 -46 1 -19 -26 28 -28 84
-28 111 -1 l20 20 20 -20 c27 -27 83 -27 111 1 28 28 10 48 -22 25 -51 -35
-89 -3 -89 74 0 44 1 45 46 64 86 35 194 193 194 284 0 100 -68 145 -225 149
-63 2 -115 -2 -140 -10z"/>
<path d="M970 7112 c0 -5 7 -13 16 -16 10 -4 14 -1 12 6 -5 15 -28 23 -28 10z"/>
<path d="M951 6988 c-1 -9 -7 -18 -13 -21 -7 -2 -10 -8 -6 -12 13 -14 36 9 27
30 -6 16 -8 16 -8 3z"/>
<path d="M847 6973 c-12 -12 -7 -22 8 -17 8 4 15 10 15 15 0 11 -14 12 -23 2z"/>
<path d="M4697 4396 c-21 -8 -47 -22 -57 -31 -26 -24 -60 -96 -60 -127 0 -43
-10 -58 -40 -58 -38 0 -52 -21 -48 -72 3 -42 4 -43 41 -46 l37 -3 0 -155 0
-154 -29 0 c-39 0 -53 -20 -49 -72 l3 -43 194 -3 c134 -2 198 1 207 9 17 14
18 81 2 97 -8 8 -45 12 -100 12 l-89 0 3 153 3 152 60 3 c72 4 85 13 85 61 0
51 -14 61 -87 61 l-63 0 6 28 c12 51 32 72 69 72 19 0 50 -8 70 -17 33 -16 38
-16 63 -1 15 9 33 25 40 36 19 28 -16 66 -84 91 -63 24 -122 26 -177 7z"/>
<path d="M5872 4388 c-9 -9 -12 -106 -12 -373 0 -267 3 -364 12 -373 15 -15
100 -16 115 -1 8 8 20 6 43 -6 45 -23 135 -17 177 13 55 39 67 80 71 239 5
192 -14 250 -98 293 -35 18 -124 16 -155 -4 l-25 -16 0 108 c0 71 -4 112 -12
120 -16 16 -100 16 -116 0z m250 -345 c15 -14 18 -32 18 -132 0 -135 -10 -161
-63 -161 -18 0 -43 7 -55 16 -21 14 -22 22 -22 136 0 99 3 125 17 140 20 23
80 24 105 1z"/>
<path d="M3553 4330 c-113 -23 -173 -93 -173 -199 0 -114 53 -172 196 -216 89
-27 104 -41 104 -94 0 -65 -94 -84 -176 -36 l-45 26 -44 -26 c-58 -33 -60 -61
-8 -104 50 -41 113 -61 193 -61 158 0 251 110 219 261 -17 80 -69 126 -182
162 -98 32 -117 46 -117 87 0 62 54 81 154 55 l69 -18 29 34 c17 21 27 43 25
59 -4 50 -144 90 -244 70z"/>
<path d="M5096 4308 c-10 -14 -16 -44 -16 -75 0 -52 -1 -53 -29 -53 -39 0 -53
-20 -49 -72 3 -41 5 -43 38 -48 l35 -5 6 -140 c9 -187 29 -237 114 -276 85
-39 231 -15 271 46 19 29 10 50 -30 75 l-33 20 -50 -22 c-45 -18 -55 -20 -82
-8 -42 17 -52 61 -49 197 l3 108 70 3 c39 2 76 5 83 7 7 3 12 23 12 54 0 58
-5 61 -101 61 l-69 0 0 65 c0 73 -11 85 -74 85 -25 0 -39 -6 -50 -22z"/>
<path d="M4095 4190 c-84 -14 -124 -46 -150 -119 -18 -52 -21 -255 -4 -316 26
-92 88 -134 200 -135 87 0 144 29 179 91 22 39 25 58 28 167 4 133 -6 197 -39
244 -39 54 -128 82 -214 68z m95 -140 c18 -18 20 -33 20 -144 0 -134 -5 -149
-55 -162 -23 -6 -64 10 -77 30 -4 6 -8 66 -8 134 0 109 2 124 20 142 11 11 33
20 50 20 17 0 39 -9 50 -20z"/>
<path d="M6595 4195 c-5 -2 -27 -6 -48 -10 -48 -8 -100 -54 -121 -106 -19 -47
-27 -179 -16 -265 10 -81 33 -127 81 -160 33 -23 53 -28 119 -32 67 -4 85 -1
125 18 55 27 84 64 68 89 -5 9 -24 24 -40 34 -29 17 -32 16 -77 -4 -76 -33
-136 -6 -136 62 l0 27 126 3 c157 5 159 7 150 123 -12 147 -57 201 -186 219
-19 3 -39 4 -45 2z m67 -142 c9 -10 19 -33 23 -50 l7 -33 -71 0 -71 0 0 32 c0
17 7 40 17 50 21 23 75 24 95 1z"/>
<path d="M7071 4190 c-49 -11 -83 -40 -109 -91 -20 -40 -22 -60 -23 -185 -1
-145 11 -205 49 -247 45 -51 155 -63 213 -24 l34 23 34 -23 c37 -25 65 -28
105 -13 23 8 26 15 26 59 0 40 -3 50 -20 54 -19 5 -20 14 -20 209 0 145 -3
207 -12 216 -14 14 -96 16 -117 3 -8 -5 -24 -3 -40 4 -38 18 -81 23 -120 15z
m133 -152 c12 -17 16 -49 16 -135 0 -100 -2 -115 -20 -133 -26 -26 -81 -26
-104 -1 -33 37 -33 242 0 276 24 24 90 19 108 -7z"/>
<path d="M7490 4161 c-14 -27 -13 -76 3 -89 7 -6 33 -12 57 -14 l45 -3 3 -152
3 -153 -49 0 c-57 0 -72 -12 -72 -60 0 -20 5 -41 12 -48 17 -17 379 -17 396 0
16 16 15 83 -1 96 -7 6 -44 12 -82 14 l-70 3 -3 55 c-2 30 -1 88 3 128 9 97
23 112 108 112 36 0 68 5 75 12 17 17 15 93 -3 108 -21 18 -129 8 -153 -13
-23 -21 -32 -22 -32 -3 0 21 -23 26 -130 26 -88 0 -100 -2 -110 -19z"/>
<path d="M5673 3025 c-42 -18 -73 -50 -63 -65 5 -8 13 -4 28 14 28 37 78 56
116 45 29 -8 30 -7 12 6 -24 18 -51 18 -93 0z"/>
<path d="M6816 2944 c-23 -23 -20 -30 4 -9 11 10 20 20 20 22 0 7 -9 2 -24
-13z"/>
<path d="M5582 2938 c-1 -7 -7 -42 -13 -77 -8 -45 -8 -66 0 -74 8 -8 11 0 11
29 1 21 7 57 15 78 13 38 12 56 -4 56 -4 0 -8 -6 -9 -12z"/>
<path d="M6783 2879 c-20 -26 -36 -62 -23 -54 8 5 7 0 -2 -14 -11 -18 -10 -23
5 -38 16 -16 17 -15 17 21 0 20 5 46 11 57 13 25 7 46 -8 28z"/>
<path d="M7879 2748 c0 -40 -2 -83 -5 -95 -2 -12 1 -25 6 -28 6 -4 10 31 10
94 0 56 -2 101 -5 101 -3 0 -5 -33 -6 -72z"/>
<path d="M6756 2709 c8 -59 24 -74 24 -22 0 24 -6 46 -15 53 -13 11 -14 6 -9
-31z"/>
<path d="M4047 2693 c-4 -3 -7 -11 -7 -17 0 -6 5 -5 12 2 6 6 9 14 7 17 -3 3
-9 2 -12 -2z"/>
<path d="M4021 2634 c0 -11 3 -14 6 -6 3 7 2 16 -1 19 -3 4 -6 -2 -5 -13z"/>
<path d="M7846 2544 c-25 -87 -23 -260 6 -431 11 -67 34 -90 24 -25 -3 20 -8
62 -12 92 -3 30 -8 62 -9 70 -2 8 -6 59 -10 112 -7 87 -5 104 16 163 14 42 19
69 13 75 -6 6 -16 -14 -28 -56z"/>
<path d="M3978 2522 c-40 -118 -54 -256 -38 -383 7 -57 15 -98 17 -91 3 6 9
10 13 7 5 -3 4 8 -2 25 -7 20 -9 92 -6 198 4 146 8 176 30 240 14 39 23 74 19
77 -4 2 -19 -31 -33 -73z"/>
<path d="M5344 2544 c-4 -22 -13 -53 -21 -71 -15 -37 -18 -82 -4 -67 12 12 45
163 38 171 -3 3 -9 -12 -13 -33z"/>
<path d="M7415 2530 c-3 -5 -1 -10 4 -10 6 0 11 5 11 10 0 6 -2 10 -4 10 -3 0
-8 -4 -11 -10z"/>
<path d="M7401 2438 c-19 -118 -21 -286 -4 -300 12 -10 14 2 8 83 -4 55 -3
133 4 188 14 112 9 131 -8 29z"/>
<path d="M4703 2408 c-18 -52 -26 -106 -14 -88 6 8 11 25 11 38 0 13 5 32 11
43 6 11 9 25 7 30 -2 6 -9 -5 -15 -23z"/>
<path d="M5307 2363 c-9 -8 -9 -155 -1 -205 10 -57 20 -46 15 15 -3 28 -6 85
-6 125 0 39 0 72 -1 72 0 0 -4 -3 -7 -7z"/>
<path d="M6604 2336 c-3 -21 -4 -39 -1 -42 3 -4 9 10 13 30 3 21 4 39 1 42 -3
4 -9 -10 -13 -30z"/>
<path d="M6197 2321 c-4 -17 -3 -21 5 -13 5 5 8 16 6 23 -3 8 -7 3 -11 -10z"/>
<path d="M4671 2284 c0 -11 3 -14 6 -6 3 7 2 16 -1 19 -3 4 -6 -2 -5 -13z"/>
<path d="M6598 2265 c-12 -36 -21 -282 -10 -289 6 -4 13 32 17 97 8 116 4 223
-7 192z"/>
<path d="M4653 2208 c-25 -108 -34 -191 -23 -202 7 -7 10 -6 10 2 0 6 7 61 16
123 17 122 15 159 -3 77z"/>
<path d="M6156 2133 c-25 -123 -32 -223 -16 -223 6 0 10 26 10 58 0 31 5 86
10 121 11 63 7 99 -4 44z"/>
<path d="M7384 2095 c0 -14 6 -25 11 -25 6 0 5 -3 -1 -8 -15 -9 -28 -502 -14
-502 6 0 11 35 11 78 1 42 2 88 4 102 1 14 5 100 9 191 6 140 5 167 -7 177
-13 11 -15 9 -13 -13z"/>
<path d="M5322 2067 c-8 -10 -10 -21 -5 -29 4 -7 14 -38 21 -68 7 -30 18 -76
24 -102 6 -27 15 -48 20 -48 5 0 6 10 2 23 -4 12 -17 71 -28 131 -18 94 -23
107 -34 93z"/>
<path d="M3965 2030 c-3 -5 -1 -10 4 -10 6 0 11 5 11 10 0 6 -2 10 -4 10 -3 0
-8 -4 -11 -10z"/>
<path d="M7876 2031 c-3 -5 1 -28 10 -52 9 -24 22 -64 29 -89 7 -25 14 -36 14
-25 1 17 -10 58 -37 135 -3 8 -4 21 -3 28 2 14 -5 16 -13 3z"/>
<path d="M3977 2003 c-3 -4 7 -44 21 -87 29 -89 42 -89 17 1 -9 32 -17 63 -19
70 -3 18 -13 26 -19 16z"/>
<path d="M4612 1964 c0 -16 -2 -84 -6 -152 -4 -82 -3 -121 4 -117 6 3 10 48
10 103 0 53 4 113 10 132 8 27 7 38 -5 49 -13 13 -14 11 -13 -15z"/>
<path d="M6578 1875 c2 -47 8 -85 13 -85 5 0 7 -12 3 -27 -4 -22 -3 -25 5 -13
15 21 15 153 0 144 -8 -4 -8 -1 -1 13 7 12 7 25 1 36 -19 33 -24 16 -21 -68z"/>
<path d="M6127 1840 c-3 -11 -1 -20 4 -20 5 0 9 9 9 20 0 11 -2 20 -4 20 -2 0
-6 -9 -9 -20z"/>
<path d="M4032 1805 c0 -16 2 -22 5 -12 2 9 2 23 0 30 -3 6 -5 -1 -5 -18z"/>
<path d="M5381 1805 c1 -19 18 -51 18 -35 0 8 -4 22 -9 30 -5 8 -9 11 -9 5z"/>
<path d="M6121 1780 c-1 -3 -2 -118 -4 -256 -1 -190 1 -250 10 -247 14 5 17
404 4 468 -5 22 -9 38 -10 35z"/>
<path d="M6595 1720 c-3 -5 1 -24 9 -42 8 -18 22 -63 32 -100 9 -38 21 -68 25
-68 13 0 11 10 -16 94 -14 42 -25 88 -25 101 0 25 -14 33 -25 15z"/>
<path d="M4612 1668 c-14 -14 -16 -38 -3 -38 5 0 6 -12 2 -27 -4 -14 -3 -56 1
-92 5 -36 10 -86 13 -111 7 -70 16 -122 25 -155 5 -16 12 -50 15 -75 6 -43 41
-184 50 -205 9 -18 -6 68 -25 150 -10 44 -26 143 -35 220 -9 77 -20 169 -24
205 -5 36 -7 82 -6 103 4 42 4 42 -13 25z"/>
<path d="M7375 1531 c-13 -13 2 -313 17 -349 14 -36 23 -10 9 28 -5 17 -9 96
-8 180 1 83 0 150 -3 150 -4 0 -10 -4 -15 -9z"/>
<path d="M6660 1493 c0 -5 5 -15 10 -23 7 -12 9 -10 7 8 -1 19 -17 33 -17 15z"/>
<path d="M6681 1434 c0 -11 3 -14 6 -6 3 7 2 16 -1 19 -3 4 -6 -2 -5 -13z"/>
<path d="M6682 1380 c0 -19 2 -27 5 -17 2 9 2 25 0 35 -3 9 -5 1 -5 -18z"/>
<path d="M6116 1234 c-9 -23 -8 -26 7 -18 9 5 9 4 0 -6 -8 -8 -10 -42 -7 -104
12 -259 17 -317 26 -322 7 -5 8 21 3 79 -4 48 -7 154 -7 237 0 138 -6 175 -22
134z"/>
<path d="M7390 1132 c6 -13 14 -21 18 -18 3 4 -2 14 -12 24 -18 16 -18 16 -6
-6z"/>
<path d="M7405 1051 c4 -30 11 -62 16 -70 6 -11 7 0 3 34 -10 72 -26 103 -19
36z"/>
<path d="M7432 940 c0 -14 2 -19 5 -12 2 6 2 18 0 25 -3 6 -5 1 -5 -13z"/>
<path d="M4720 901 c0 -5 5 -13 10 -16 6 -3 10 -2 10 4 0 5 -4 13 -10 16 -5 3
-10 2 -10 -4z"/>
<path d="M7440 894 c0 -10 5 -26 10 -34 8 -11 9 -7 4 15 -8 37 -14 45 -14 19z"/>
<path d="M7461 824 c0 -11 3 -14 6 -6 3 7 2 16 -1 19 -3 4 -6 -2 -5 -13z"/>
<path d="M7471 754 c0 -11 3 -14 6 -6 3 7 2 16 -1 19 -3 4 -6 -2 -5 -13z"/>
<path d="M6140 750 c0 -8 7 -35 15 -60 l15 -45 -6 50 c-6 46 -24 89 -24 55z"/>
<path d="M6171 624 c0 -11 3 -14 6 -6 3 7 2 16 -1 19 -3 4 -6 -2 -5 -13z"/>
<path d="M6186 570 c8 -43 14 -51 14 -19 0 13 -5 31 -10 39 -7 11 -8 5 -4 -20z"/>
<path d="M6201 504 c0 -11 3 -14 6 -6 3 7 2 16 -1 19 -3 4 -6 -2 -5 -13z"/>
</g>
</svg>
