<?xml version="1.0" encoding="UTF-8" standalone="no"?> <svg width="24" height="24" viewBox="0 0 24 24" fill="none" xmlns="http://www.w3.org/2000/svg">
<path d="M17 21.9999H7C6.20435 21.9999 5.44129 21.6838 4.87868 21.1212C4.31607 20.5586 4 19.7955 4 18.9999V7.99988H3C2.73478 7.99988 2.48043 7.89453 2.29289 7.70699C2.10536 7.51945 2 7.2651 2 6.99988C2 6.73467 2.10536 6.48031 2.29289 6.29278C2.48043 6.10524 2.73478 5.99988 3 5.99988H8V4.32788C8.02424 3.68815 8.30088 3.08405 8.76939 2.64777C9.23791 2.21148 9.86016 1.97853 10.5 1.99988H13.5C14.1398 1.9788 14.7619 2.21184 15.2303 2.64807C15.6988 3.0843 15.9755 3.68824 16 4.32788V5.99988H21C21.2652 5.99988 21.5196 6.10524 21.7071 6.29278C21.8946 6.48031 22 6.73467 22 6.99988C22 7.2651 21.8946 7.51945 21.7071 7.70699C21.5196 7.89453 21.2652 7.99988 21 7.99988H20V18.9999C20 19.7955 19.6839 20.5586 19.1213 21.1212C18.5587 21.6838 17.7956 21.9999 17 21.9999V21.9999ZM15 10.9999C14.7348 10.9999 14.4804 11.1052 14.2929 11.2928C14.1054 11.4803 14 11.7347 14 11.9999V15.9999C14 16.2651 14.1054 16.5195 14.2929 16.707C14.4804 16.8945 14.7348 16.9999 15 16.9999C15.2652 16.9999 15.5196 16.8945 15.7071 16.707C15.8946 16.5195 16 16.2651 16 15.9999V11.9999C16 11.7347 15.8946 11.4803 15.7071 11.2928C15.5196 11.1052 15.2652 10.9999 15 10.9999ZM9 10.9999C8.73478 10.9999 8.48043 11.1052 8.29289 11.2928C8.10536 11.4803 8 11.7347 8 11.9999V15.9999C8 16.2651 8.10536 16.5195 8.29289 16.707C8.48043 16.8945 8.73478 16.9999 9 16.9999C9.26522 16.9999 9.51957 16.8945 9.70711 16.707C9.89464 16.5195 10 16.2651 10 15.9999V11.9999C10 11.7347 9.89464 11.4803 9.70711 11.2928C9.51957 11.1052 9.26522 10.9999 9 10.9999ZM10.5 3.99988C10.214 3.99988 10 4.17288 10 4.32788V5.99988H14V4.32788C14 4.17288 13.786 3.99988 13.5 3.99988H10.5Z" fill="black"/>
</svg>
